<?xml version="1.0" encoding="UTF-8"?>
<svg xmlns="http://www.w3.org/2000/svg" width="1400" height="800" viewBox="0 0 1400 800">
  <defs>
    <radialGradient id="bg" cx="22%" cy="26%" r="86%">
      <stop offset="0%" stop-color="#FACC15" stop-opacity="0.42"/>
      <stop offset="38%" stop-color="#1D4ED8" stop-opacity="0.24"/>
      <stop offset="100%" stop-color="#0B1220" stop-opacity="1"/>
    </radialGradient>
    <radialGradient id="glow1" cx="78%" cy="18%" r="60%">
      <stop offset="0%" stop-color="#7DD3FC" stop-opacity="0.34"/>
      <stop offset="100%" stop-color="#0B1220" stop-opacity="0"/>
    </radialGradient>
    <radialGradient id="glow2" cx="18%" cy="84%" r="58%">
      <stop offset="0%" stop-color="#22C55E" stop-opacity="0.20"/>
      <stop offset="100%" stop-color="#0B1220" stop-opacity="0"/>
    </radialGradient>
    <radialGradient id="glow3" cx="84%" cy="82%" r="62%">
      <stop offset="0%" stop-color="#FFFFFF" stop-opacity="0.10"/>
      <stop offset="100%" stop-color="#0B1220" stop-opacity="0"/>
    </radialGradient>
    <filter id="blur" x="-20%" y="-20%" width="140%" height="140%">
      <feGaussianBlur stdDeviation="22"/>
    </filter>
    <pattern id="dots" width="26" height="26" patternUnits="userSpaceOnUse">
      <circle cx="2" cy="2" r="1.2" fill="#FFFFFF" opacity="0.06"/>
    </pattern>
  </defs>

  <rect width="1400" height="800" fill="#0B1220"/>
  <rect width="1400" height="800" fill="url(#bg)"/>
  <circle cx="1100" cy="200" r="420" fill="url(#glow1)" filter="url(#blur)"/>
  <circle cx="260" cy="620" r="380" fill="url(#glow2)" filter="url(#blur)"/>
  <circle cx="1100" cy="620" r="360" fill="url(#glow3)" filter="url(#blur)"/>
  <rect width="1400" height="800" fill="url(#dots)"/>

  <g opacity="0.22">
    <path d="M120 640 C 360 520, 520 520, 740 620 C 960 720, 1140 700, 1280 620" fill="none" stroke="#FFFFFF" stroke-width="2"/>
    <path d="M120 675 C 360 560, 520 560, 740 650 C 960 740, 1140 720, 1280 655" fill="none" stroke="#7DD3FC" stroke-width="2"/>
  </g>
</svg>

