<svg xmlns="http://www.w3.org/2000/svg" width="512" height="512" viewBox="0 0 512 512" role="img" aria-label="Marketbrain">
  <defs>
    <linearGradient id="g" x1="0" y1="0" x2="1" y2="1">
      <stop offset="0" stop-color="#0ea5e9"/>
      <stop offset="0.5" stop-color="#22d3ee"/>
      <stop offset="1" stop-color="#60a5fa"/>
    </linearGradient>
    <radialGradient id="r" cx="30%" cy="25%" r="75%">
      <stop offset="0" stop-color="#ffffff" stop-opacity="0.28"/>
      <stop offset="0.55" stop-color="#ffffff" stop-opacity="0.06"/>
      <stop offset="1" stop-color="#ffffff" stop-opacity="0"/>
    </radialGradient>
    <filter id="s" x="-20%" y="-20%" width="140%" height="140%">
      <feDropShadow dx="0" dy="10" stdDeviation="14" flood-color="#0b1220" flood-opacity="0.35"/>
    </filter>
  </defs>

  <!-- base -->
  <circle cx="256" cy="256" r="224" fill="#0b1220" filter="url(#s)"/>
  <circle cx="256" cy="256" r="212" fill="url(#g)"/>
  <circle cx="256" cy="256" r="212" fill="url(#r)"/>

  <!-- subtle ring -->
  <circle cx="256" cy="256" r="188" fill="none" stroke="#e2f8ff" stroke-opacity="0.22" stroke-width="8"/>

  <!-- mark: MB -->
  <g fill="#071322" fill-opacity="0.92">
    <path d="M162 336V176h38l56 86 56-86h38v160h-40V244l-44 68h-20l-44-68v92z"/>
    <path d="M372 176c34 0 58 18 58 46 0 18-10 32-26 39 20 7 32 22 32 43 0 34-28 52-68 52h-78V176zm-38 64h34c14 0 22-6 22-16s-8-16-22-16h-34zm0 78h40c18 0 28-7 28-19s-10-19-28-19h-40z"/>
  </g>

  <!-- tiny neural sparkle -->
  <g fill="none" stroke="#ffffff" stroke-opacity="0.75" stroke-width="6" stroke-linecap="round" stroke-linejoin="round">
    <path d="M110 214c18-30 46-52 80-64"/>
    <path d="M402 298c-16 30-42 54-74 68"/>
  </g>
  <g fill="#ffffff" fill-opacity="0.85">
    <circle cx="194" cy="150" r="8"/>
    <circle cx="328" cy="368" r="8"/>
  </g>
</svg>

